<?xml version="1.0" standalone="no"?><!DOCTYPE svg PUBLIC "-//W3C//DTD SVG 1.1//EN" "http://www.w3.org/Graphics/SVG/1.1/DTD/svg11.dtd"><svg t="1774237757636" class="icon" viewBox="0 0 1024 1024" version="1.1" xmlns="http://www.w3.org/2000/svg" p-id="14234" xmlns:xlink="http://www.w3.org/1999/xlink" width="200" height="200"><path d="M236.8 665.6l256 140.8V524.8L236.8 384v281.6z m550.4 0V390.4l-256 140.8v281.6c0-6.4 256-147.2 256-147.2zM768 358.4L512 217.6 256 358.4l256 140.8 256-140.8zM64 473.6c19.2 0 32-12.8 32-32V288l140.8-76.8c19.2-6.4 25.6-25.6 19.2-38.4-6.4-19.2-25.6-25.6-38.4-19.2 0 0-6.4 0-6.4 6.4L51.2 243.2c-12.8 6.4-19.2 19.2-19.2 25.6v172.8c0 19.2 12.8 32 32 32z m172.8 339.2l-140.8-76.8V582.4c0-19.2-12.8-32-32-32s-32 12.8-32 32v172.8c0 12.8 6.4 19.2 19.2 25.6l160 83.2c12.8 6.4 32 6.4 44.8-12.8 6.4-12.8 0-32-19.2-38.4z m416 70.4L512 960l-140.8-76.8c-12.8-6.4-32-6.4-44.8 12.8-6.4 12.8-6.4 32 12.8 38.4l160 83.2c12.8 6.4 19.2 6.4 32 0l160-83.2c12.8-6.4 19.2-25.6 12.8-38.4-12.8-19.2-32-19.2-51.2-12.8zM960 550.4c-19.2 0-32 12.8-32 32v153.6l-140.8 76.8c-12.8 12.8-19.2 32-6.4 44.8 6.4 12.8 25.6 12.8 38.4 6.4l160-83.2c12.8-6.4 19.2-12.8 19.2-25.6V582.4c-6.4-19.2-19.2-32-38.4-32z m12.8-307.2l-160-83.2c-12.8-6.4-32-6.4-44.8 12.8-6.4 12.8-6.4 32 12.8 38.4l140.8 76.8v153.6c0 19.2 12.8 32 32 32s32-12.8 32-32V268.8c6.4-6.4 0-19.2-12.8-25.6zM371.2 140.8L512 64l140.8 76.8c12.8 6.4 32 6.4 44.8-12.8 6.4-12.8 6.4-32-12.8-38.4L531.2 6.4c-12.8-6.4-25.6-6.4-38.4 0L339.2 89.6c-19.2 6.4-25.6 25.6-12.8 38.4 6.4 19.2 25.6 19.2 44.8 12.8z" fill="#606266" p-id="14235"></path></svg>